<mxfile host="65bd71144e">
    <diagram id="s7P8sfxehP0rysIzW9cO" name="Page-1">
        <mxGraphModel dx="598" dy="431" grid="1" gridSize="10" guides="1" tooltips="1" connect="1" arrows="1" fold="1" page="1" pageScale="1" pageWidth="850" pageHeight="1100" math="0" shadow="0">
            <root>
                <mxCell id="0"/>
                <mxCell id="1" parent="0"/>
                <mxCell id="2" value="" style="ellipse;whiteSpace=wrap;html=1;fillColor=#60a917;fontColor=#ffffff;strokeColor=#2D7600;" parent="1" vertex="1">
                    <mxGeometry x="40" y="80" width="480" height="300" as="geometry"/>
                </mxCell>
                <mxCell id="3" value="" style="rounded=1;whiteSpace=wrap;html=1;direction=south;fillColor=#f5f5f5;fontColor=#333333;strokeColor=#666666;" parent="1" vertex="1">
                    <mxGeometry x="280" y="100" width="60" height="80" as="geometry"/>
                </mxCell>
                <mxCell id="4" value="" style="rounded=1;whiteSpace=wrap;html=1;direction=south;fillColor=#f5f5f5;fontColor=#333333;strokeColor=#666666;" parent="1" vertex="1">
                    <mxGeometry x="280" y="230" width="60" height="80" as="geometry"/>
                </mxCell>
                <mxCell id="5" value="" style="rounded=1;whiteSpace=wrap;html=1;direction=south;fillColor=#f5f5f5;fontColor=#333333;strokeColor=#666666;" parent="1" vertex="1">
                    <mxGeometry x="210" y="230" width="60" height="80" as="geometry"/>
                </mxCell>
                <mxCell id="6" value="" style="rounded=1;whiteSpace=wrap;html=1;direction=south;fillStyle=auto;strokeColor=#10739e;fillColor=#b1ddf0;" parent="1" vertex="1">
                    <mxGeometry x="210" y="100" width="60" height="80" as="geometry"/>
                </mxCell>
                <mxCell id="7" value="" style="rhombus;whiteSpace=wrap;html=1;fillStyle=auto;strokeColor=#6F0000;fillColor=#a20025;fontColor=#ffffff;" parent="1" vertex="1">
                    <mxGeometry x="230" y="240" width="10" height="10" as="geometry"/>
                </mxCell>
                <mxCell id="8" value="4" style="text;html=1;align=center;verticalAlign=middle;whiteSpace=wrap;rounded=0;fillStyle=auto;fontColor=#0A0A0A;fontSize=19;" parent="1" vertex="1">
                    <mxGeometry x="190" y="230" width="60" height="30" as="geometry"/>
                </mxCell>
                <mxCell id="9" value="8" style="text;html=1;align=center;verticalAlign=middle;whiteSpace=wrap;rounded=0;fillStyle=auto;fontColor=#0A0A0A;fontSize=19;" parent="1" vertex="1">
                    <mxGeometry x="280" y="230" width="20" height="30" as="geometry"/>
                </mxCell>
                <mxCell id="10" value="" style="rhombus;whiteSpace=wrap;html=1;fillStyle=auto;strokeColor=#6F0000;fillColor=#a20025;fontColor=#ffffff;" parent="1" vertex="1">
                    <mxGeometry x="297" y="239" width="10" height="10" as="geometry"/>
                </mxCell>
                <mxCell id="11" value="" style="rounded=1;whiteSpace=wrap;html=1;fillStyle=auto;strokeColor=#000000;fontSize=19;fontColor=#0A0A0A;fillColor=#9783FC;" parent="1" vertex="1">
                    <mxGeometry x="180" y="340" width="30" height="20" as="geometry"/>
                </mxCell>
                <mxCell id="12" value="" style="rounded=1;whiteSpace=wrap;html=1;fillStyle=auto;strokeColor=#000000;fontSize=19;fontColor=#0A0A0A;fillColor=#9783FC;" parent="1" vertex="1">
                    <mxGeometry x="220" y="340" width="30" height="20" as="geometry"/>
                </mxCell>
                <mxCell id="13" value="" style="rounded=1;whiteSpace=wrap;html=1;fillStyle=auto;strokeColor=#000000;fontSize=19;fontColor=#0A0A0A;fillColor=#9783FC;" parent="1" vertex="1">
                    <mxGeometry x="260" y="340" width="30" height="20" as="geometry"/>
                </mxCell>
                <mxCell id="14" value="Hit" style="text;html=1;strokeColor=none;fillColor=none;align=center;verticalAlign=middle;whiteSpace=wrap;rounded=0;fillStyle=auto;fontSize=12;fontColor=#0A0A0A;" parent="1" vertex="1">
                    <mxGeometry x="165" y="332.5" width="60" height="35" as="geometry"/>
                </mxCell>
                <mxCell id="15" value="&lt;font style=&quot;font-size: 9px;&quot;&gt;Stand&lt;/font&gt;" style="text;html=1;strokeColor=none;fillColor=none;align=center;verticalAlign=middle;whiteSpace=wrap;rounded=0;fillStyle=auto;fontSize=12;fontColor=#0A0A0A;" parent="1" vertex="1">
                    <mxGeometry x="205" y="332.5" width="60" height="30" as="geometry"/>
                </mxCell>
                <mxCell id="16" value="&lt;font style=&quot;font-size: 6px;&quot;&gt;Double&lt;br&gt;Down&lt;/font&gt;" style="text;html=1;strokeColor=none;fillColor=none;align=center;verticalAlign=middle;whiteSpace=wrap;rounded=0;fillStyle=auto;fontSize=9;fontColor=#0A0A0A;" parent="1" vertex="1">
                    <mxGeometry x="245" y="350" width="60" as="geometry"/>
                </mxCell>
                <mxCell id="17" value="" style="verticalLabelPosition=bottom;verticalAlign=top;html=1;shape=mxgraph.basic.heart;fillStyle=auto;strokeColor=#6F0000;fontSize=6;fontColor=#ffffff;fillColor=#a20025;" parent="1" vertex="1">
                    <mxGeometry x="296" y="110" width="10" height="10" as="geometry"/>
                </mxCell>
                <mxCell id="18" value="&lt;font style=&quot;font-size: 16px;&quot;&gt;A&lt;/font&gt;" style="text;html=1;strokeColor=none;fillColor=none;align=center;verticalAlign=middle;whiteSpace=wrap;rounded=0;fillStyle=auto;fontSize=6;fontColor=#0A0A0A;" parent="1" vertex="1">
                    <mxGeometry x="280" y="105" width="20" height="20" as="geometry"/>
                </mxCell>
                <mxCell id="19" value="" style="ellipse;whiteSpace=wrap;html=1;aspect=fixed;fillStyle=auto;strokeColor=#001DBC;fontSize=16;fontColor=#ffffff;fillColor=#0050ef;" parent="1" vertex="1">
                    <mxGeometry x="385" y="303" width="20" height="20" as="geometry"/>
                </mxCell>
                <mxCell id="23" style="edgeStyle=none;html=1;exitX=0.5;exitY=1;exitDx=0;exitDy=0;entryX=0.5;entryY=1;entryDx=0;entryDy=0;fontSize=11;fontColor=#0A0A0A;" parent="1" source="20" target="21" edge="1">
                    <mxGeometry relative="1" as="geometry"/>
                </mxCell>
                <mxCell id="24" style="edgeStyle=none;html=1;fontSize=11;fontColor=#0A0A0A;" parent="1" source="20" target="21" edge="1">
                    <mxGeometry relative="1" as="geometry"/>
                </mxCell>
                <mxCell id="20" value="" style="rounded=0;whiteSpace=wrap;html=1;fillStyle=auto;strokeColor=#C73500;fontSize=16;fontColor=#000000;fillColor=#fa6800;" parent="1" vertex="1">
                    <mxGeometry x="90" y="270" width="80" height="30" as="geometry"/>
                </mxCell>
                <mxCell id="21" value="&lt;font style=&quot;font-size: 11px;&quot;&gt;Bank: $100&lt;/font&gt;" style="text;html=1;strokeColor=none;fillColor=none;align=center;verticalAlign=middle;whiteSpace=wrap;rounded=0;fillStyle=auto;fontSize=16;fontColor=#0A0A0A;" parent="1" vertex="1">
                    <mxGeometry x="80" y="270" width="100" height="30" as="geometry"/>
                </mxCell>
                <mxCell id="28" value="" style="rounded=1;whiteSpace=wrap;html=1;fillStyle=auto;strokeColor=#000000;fontSize=19;fontColor=#0A0A0A;fillColor=#9783FC;textOpacity=40;opacity=30;" parent="1" vertex="1">
                    <mxGeometry x="297" y="340" width="30" height="20" as="geometry"/>
                </mxCell>
                <mxCell id="32" value="Deal" style="text;html=1;strokeColor=none;fillColor=none;align=center;verticalAlign=middle;whiteSpace=wrap;rounded=0;fillStyle=auto;fontSize=11;fontColor=#0A0A0A;opacity=30;textOpacity=30;" parent="1" vertex="1">
                    <mxGeometry x="282" y="335" width="60" height="30" as="geometry"/>
                </mxCell>
                <mxCell id="34" value="Wager: $" style="text;html=1;strokeColor=none;fillColor=none;align=center;verticalAlign=middle;whiteSpace=wrap;rounded=0;fillStyle=auto;fontSize=8;fontColor=#0A0A0A;opacity=30;" parent="1" vertex="1">
                    <mxGeometry x="324" y="320" width="60" height="30" as="geometry"/>
                </mxCell>
                <mxCell id="35" value="" style="rounded=0;whiteSpace=wrap;html=1;fillStyle=auto;strokeColor=#000000;fontSize=8;fontColor=#0A0A0A;fillColor=#FFFFFF;" parent="1" vertex="1">
                    <mxGeometry x="375" y="327.5" width="60" height="15" as="geometry"/>
                </mxCell>
                <mxCell id="36" value="10" style="text;html=1;strokeColor=none;fillColor=none;align=center;verticalAlign=middle;whiteSpace=wrap;rounded=0;fillStyle=auto;fontSize=8;fontColor=#0A0A0A;" parent="1" vertex="1">
                    <mxGeometry x="375" y="320" width="60" height="30" as="geometry"/>
                </mxCell>
                <mxCell id="37" value="" style="ellipse;whiteSpace=wrap;html=1;aspect=fixed;fillStyle=auto;strokeColor=#001DBC;fontSize=16;fontColor=#ffffff;fillColor=#0050ef;" parent="1" vertex="1">
                    <mxGeometry x="110" y="307.5" width="20" height="20" as="geometry"/>
                </mxCell>
                <mxCell id="38" value="" style="ellipse;whiteSpace=wrap;html=1;aspect=fixed;fillStyle=auto;strokeColor=#3700CC;fontSize=16;fontColor=#ffffff;fillColor=#6a00ff;" parent="1" vertex="1">
                    <mxGeometry x="120" y="317.5" width="20" height="20" as="geometry"/>
                </mxCell>
                <mxCell id="39" value="" style="ellipse;whiteSpace=wrap;html=1;aspect=fixed;fillStyle=auto;strokeColor=#6F0000;fontSize=16;fontColor=#ffffff;fillColor=#a20025;" parent="1" vertex="1">
                    <mxGeometry x="120" y="305" width="20" height="20" as="geometry"/>
                </mxCell>
                <mxCell id="40" value="Minimum Bet: $10" style="text;html=1;strokeColor=none;fillColor=none;align=center;verticalAlign=middle;whiteSpace=wrap;rounded=0;fillStyle=auto;fontSize=11;fontColor=#0A0A0A;" parent="1" vertex="1">
                    <mxGeometry x="388" y="132.5" width="75" height="50" as="geometry"/>
                </mxCell>
                <mxCell id="41" value="&lt;font style=&quot;font-size: 16px;&quot;&gt;A&lt;/font&gt;" style="text;html=1;strokeColor=none;fillColor=none;align=center;verticalAlign=middle;whiteSpace=wrap;rounded=0;fillStyle=auto;fontSize=6;fontColor=#0A0A0A;rotation=180;" parent="1" vertex="1">
                    <mxGeometry x="300" y="150" width="60" height="30" as="geometry"/>
                </mxCell>
                <mxCell id="42" value="" style="verticalLabelPosition=bottom;verticalAlign=top;html=1;shape=mxgraph.basic.heart;fillStyle=auto;strokeColor=#6F0000;fontSize=6;fontColor=#ffffff;fillColor=#a20025;direction=west;" parent="1" vertex="1">
                    <mxGeometry x="314" y="160" width="10" height="10" as="geometry"/>
                </mxCell>
                <mxCell id="43" value="" style="rhombus;whiteSpace=wrap;html=1;fillStyle=auto;strokeColor=#6F0000;fillColor=#a20025;fontColor=#ffffff;" parent="1" vertex="1">
                    <mxGeometry x="314" y="293" width="10" height="10" as="geometry"/>
                </mxCell>
                <mxCell id="44" value="" style="rhombus;whiteSpace=wrap;html=1;fillStyle=auto;strokeColor=#6F0000;fillColor=#a20025;fontColor=#ffffff;" parent="1" vertex="1">
                    <mxGeometry x="243" y="293" width="10" height="10" as="geometry"/>
                </mxCell>
                <mxCell id="46" value="4" style="text;html=1;align=center;verticalAlign=middle;whiteSpace=wrap;rounded=0;fillStyle=auto;fontColor=#0A0A0A;fontSize=19;rotation=180;" parent="1" vertex="1">
                    <mxGeometry x="250" y="282.5" width="20" height="30" as="geometry"/>
                </mxCell>
                <mxCell id="47" value="8" style="text;html=1;align=center;verticalAlign=middle;whiteSpace=wrap;rounded=0;fillStyle=auto;fontColor=#0A0A0A;fontSize=19;rotation=180;" parent="1" vertex="1">
                    <mxGeometry x="320" y="283" width="20" height="30" as="geometry"/>
                </mxCell>
                <mxCell id="50" value="Blackjack Pays&amp;nbsp;&lt;br style=&quot;font-size: 12px;&quot;&gt;3/2" style="text;html=1;strokeColor=none;fillColor=none;align=center;verticalAlign=middle;whiteSpace=wrap;rounded=0;fillStyle=auto;fontSize=12;fontColor=#0A0A0A;fontStyle=1" parent="1" vertex="1">
                    <mxGeometry x="375" y="170" width="105" height="50" as="geometry"/>
                </mxCell>
                <mxCell id="52" value="" style="shape=callout;whiteSpace=wrap;html=1;perimeter=calloutPerimeter;fillStyle=auto;strokeColor=#000000;fontSize=8;fontColor=#0A0A0A;fillColor=#FFFFFF;direction=west;" parent="1" vertex="1">
                    <mxGeometry x="110" y="125" width="90" height="65" as="geometry"/>
                </mxCell>
                <mxCell id="51" value="Dealer: It's Your turn. What would you like to do?" style="text;html=1;strokeColor=none;fillColor=none;align=left;verticalAlign=top;whiteSpace=wrap;rounded=0;fillStyle=auto;fontSize=8;fontColor=#0A0A0A;horizontal=1;" parent="1" vertex="1">
                    <mxGeometry x="110" y="150" width="90" height="40" as="geometry"/>
                </mxCell>
                <mxCell id="53" value="" style="ellipse;whiteSpace=wrap;html=1;aspect=fixed;fillStyle=auto;strokeColor=#6F0000;fontSize=16;fontColor=#ffffff;fillColor=#a20025;" vertex="1" parent="1">
                    <mxGeometry x="360" y="303" width="20" height="20" as="geometry"/>
                </mxCell>
                <mxCell id="54" value="" style="ellipse;whiteSpace=wrap;html=1;aspect=fixed;fillStyle=auto;strokeColor=#3700CC;fontSize=16;fontColor=#ffffff;fillColor=#6a00ff;" vertex="1" parent="1">
                    <mxGeometry x="410" y="303" width="20" height="20" as="geometry"/>
                </mxCell>
                <mxCell id="55" value="" style="ellipse;whiteSpace=wrap;html=1;aspect=fixed;fillStyle=auto;fontSize=16;" vertex="1" parent="1">
                    <mxGeometry x="435" y="303" width="20" height="20" as="geometry"/>
                </mxCell>
                <mxCell id="56" value="&lt;font style=&quot;font-size: 9px;&quot;&gt;5&lt;/font&gt;" style="text;html=1;strokeColor=none;fillColor=none;align=center;verticalAlign=middle;whiteSpace=wrap;rounded=0;fontSize=9;" vertex="1" parent="1">
                    <mxGeometry x="365" y="303" width="10" height="20" as="geometry"/>
                </mxCell>
                <mxCell id="57" value="&lt;font style=&quot;font-size: 8px;&quot;&gt;10&lt;/font&gt;" style="text;html=1;strokeColor=none;fillColor=none;align=center;verticalAlign=middle;whiteSpace=wrap;rounded=0;fontSize=8;" vertex="1" parent="1">
                    <mxGeometry x="390" y="303" width="10" height="20" as="geometry"/>
                </mxCell>
                <mxCell id="59" value="&lt;font style=&quot;font-size: 8px;&quot;&gt;25&lt;/font&gt;" style="text;html=1;strokeColor=none;fillColor=none;align=center;verticalAlign=middle;whiteSpace=wrap;rounded=0;fontSize=8;" vertex="1" parent="1">
                    <mxGeometry x="415" y="303" width="10" height="20" as="geometry"/>
                </mxCell>
                <mxCell id="61" value="&lt;font style=&quot;font-size: 8px;&quot;&gt;100&lt;/font&gt;" style="text;html=1;strokeColor=none;fillColor=none;align=center;verticalAlign=middle;whiteSpace=wrap;rounded=0;fontSize=8;" vertex="1" parent="1">
                    <mxGeometry x="440" y="303" width="10" height="20" as="geometry"/>
                </mxCell>
            </root>
        </mxGraphModel>
    </diagram>
</mxfile>